
<svg viewBox="-100 -50 900 600" fill="none" xmlns="http://www.w3.org/2000/svg">
  <ellipse cx="337.845" cy="456.508" rx="247.576" ry="26.55" fill="#E5E5E5"/>
  <path d="M283.421 50.833c-48.041 2.916-73.783 7.33-116.818 21.903-1.136-22.635 5.352-59.436 17.257-55.09 11.905 4.345 43.197-.186 61.064-12.611 17.868-12.426 31.898 23.882 38.497 45.798z" fill="#CAD2FD" stroke="#1D2C44" stroke-width="5"/>
  <path d="M319.148 56.43a.096.096 0 01-.006.025.1.1 0 01.006-.026zm-.491.116c.137.09.246.17.331.237a4.65 4.65 0 01-.22.342c-.588.84-1.745 2.008-3.709 3.436-3.905 2.839-10.055 6.033-18.185 9.332-16.182 6.567-39.237 13.165-65.297 18.159-26.061 4.994-49.922 7.386-67.386 7.266-8.773-.06-15.668-.754-20.346-1.948-2.353-.6-3.859-1.258-4.716-1.822a4.418 4.418 0 01-.331-.236c.054-.094.125-.208.22-.343.588-.84 1.744-2.008 3.709-3.435 3.904-2.84 10.054-6.033 18.184-9.333 16.183-6.567 39.238-13.164 65.298-18.158 26.061-4.994 49.922-7.387 67.385-7.267 8.774.06 15.669.755 20.347 1.949 2.353.6 3.859 1.257 4.716 1.821zM138.518 91.042c.001 0 .007.007.016.022a.137.137 0 01-.016-.022zm.12.623a.096.096 0 01.006-.026.103.103 0 01-.006.026zM319.252 57.03c.012.015.016.022.015.022 0 0-.006-.007-.015-.022z" fill="#CAD2FD" stroke="#1D2C44" stroke-width="10"/>
  <path d="M125.794 163.134h18.886a5 5 0 015 5v167.538a5 5 0 005 5h369.014a5 5 0 005-5V168.134a5 5 0 015-5h11.008a5 5 0 015 5v7.616c0 3.897 4.26 6.296 7.592 4.276l8.849-5.366a5.003 5.003 0 014.104-.49l104.135 33.04c3.254 1.032 4.54 4.951 2.528 7.711l-97.519 133.798a4.999 4.999 0 00-.553 4.921l4.49 10.434c1.196 2.782-.355 5.988-3.278 6.779-79.758 21.58-132.307 22.231-229.275 12.172a5.048 5.048 0 01-2.686-1.121l-5.531-4.573a5 5 0 00-6.052-.243l-7.213 5.046a5.062 5.062 0 01-2.335.875c-100.798 11.072-154.33 10.775-231.006-11.931-3.005-.89-4.444-4.313-2.985-7.087l5.397-10.263a5 5 0 00-.338-5.206L3.842 214.766c-1.92-2.727-.682-6.534 2.474-7.611l96.306-32.847a4.998 4.998 0 014.501.65l5.784 4.092c3.311 2.342 7.887-.026 7.887-4.082v-6.834a5 5 0 015-5z" fill="#CAD2FD" stroke="#1D2C44" stroke-width="5"/>
  <path d="M556.216 224.862c-4.578-12.47-11.112-17.294-25.222-24.559v24.559c9.125 4.847 12.409 9.695 16.346 20.576m8.876-20.576l3.983-10.62m-3.983 10.62l-8.876 20.576m-5.726 13.275l5.726-13.275M120.594 224.862c4.578-12.47 11.112-17.294 25.222-24.559v24.559c-9.125 4.847-12.409 9.695-16.346 20.576m-8.876-20.576l-3.983-10.62m3.983 10.62l8.876 20.576m5.726 13.275l-5.726-13.275" stroke="#1D2C44" stroke-width="3"/>
  <path d="M281.767 343.362a5 5 0 015-5h15.214a5 5 0 015 5V455.49a5 5 0 01-5 5h-43.063c-16.547 0-18.911-12.611 2.363-19.912l16.886-4.924a4.998 4.998 0 003.6-4.8v-87.492zM393.923 343.362a5 5 0 00-5-5h-15.214a5 5 0 00-5 5V455.49a5 5 0 005 5h43.064c16.546 0 18.91-12.611-2.364-19.912l-16.886-4.924a5 5 0 01-3.6-4.8v-87.492z" fill="#1D2C44"/>
  <g filter="url(#filter0_i)">
    <path d="M144.696 91.857a5 5 0 015-5h51.956a5 5 0 005-5v-10.63a5 5 0 015-5h81.891a5 5 0 014.967 4.426l1.36 11.777a5 5 0 004.967 4.427h222.485a5 5 0 015 5v245.487a5 5 0 01-5 5H149.696a5 5 0 01-5-5V91.857z" fill="#fff"/>
  </g>
  <path d="M530.322 91.857v245.487a3 3 0 01-3 3H149.696a3 3 0 01-3-3V91.857a3 3 0 013-3h51.956a7 7 0 007-7v-10.63a3 3 0 013-3h81.891a3 3 0 012.98 2.656l1.36 11.777a7 7 0 006.954 6.197h222.485a3 3 0 013 3z" stroke="#1D2C44" stroke-width="4"/>
  <path d="M54.22 264.023V244.11m12.61 23.895c3.752-6.221 6.773-7.48 12.612-8.629m-5.974 19.913c8.993-.12 11.494 2.908 14.602 9.956" stroke="#1D2C44" stroke-width="2"/>
  <path d="M46.636 265.543c6.293-.327 10.81.751 16.232 2.794.955.36 1.879.858 2.757 1.466l2.957 2.047a7.078 7.078 0 013.05 5.82v.768a5.906 5.906 0 01-3.538 5.41 10.904 10.904 0 00-6.483 11.041l.203 2.102c.501 5.181-3.571 9.666-8.776 9.666H39.065c-7.005 0-13.507-3.081-15.984-8.802-1.949-4.501-2.407-8.489-1.652-12.682 2-11.109 13.278-19.01 25.207-19.63z" fill="#fff" stroke="#1D2C44" stroke-width="5"/>
  <path d="M627.9 262.695v-19.912m-12.611 23.895c-3.751-6.221-6.772-7.48-12.611-8.629m5.974 19.912c-8.993-.12-11.494 2.909-14.602 9.956" stroke="#1D2C44" stroke-width="2"/>
  <path d="M635.483 264.215c-6.292-.327-10.808.751-16.231 2.795-.955.36-1.879.857-2.757 1.465l-2.957 2.047a7.081 7.081 0 00-3.05 5.821v.768a5.904 5.904 0 003.538 5.409 10.904 10.904 0 016.483 11.041l-.203 2.102c-.501 5.181 3.571 9.667 8.776 9.667h13.973c7.005 0 13.507-3.081 15.984-8.802 1.949-4.502 2.407-8.489 1.652-12.682-2-11.11-13.278-19.01-25.208-19.631z" fill="#fff" stroke="#1D2C44" stroke-width="5"/>
  <path fill="#CAD2FD" stroke="#1D2C44" stroke-width="2" d="M148.351 101.742h380.316v13.93H148.351z"/>
  <path d="M302.793 240.864a37.474 37.474 0 002.709 3.31l-9.307 5.584c-.825-1.583-1.56-3.385-2.233-5.437-.383-1.168-.199-2.47.474-3.55 1.796-2.883 6.199-2.851 8.357.093zm-5.603 10.629l9.76-5.856c1.604 1.509 3.291 2.737 5.119 3.721.674.363 1.364.692 2.074.989l-5.822 9.055c-2.467-.671-4.532-1.585-6.291-2.791-1.902-1.303-3.485-2.974-4.84-5.118zm20.74 9.299c-2.84-.164-5.336-.456-7.544-.903l5.529-8.6-.967-.622c2.729 1.03 5.74 1.622 9.164 1.915 1.93.165 2.991 2.265 2.049 3.777-1.787 2.869-4.921 4.624-8.231 4.433z" stroke="#1D2C44" stroke-width="2"/>
  <circle cx="387.626" cy="193.666" r="5.31" fill="#1D2C44"/>
  <path d="M276.117 192.13c0-1.802 1.832-3.025 3.526-2.414 11.103 4.003 17.605 3.462 26.119.125 1.682-.659 3.542.546 3.542 2.353a2.46 2.46 0 01-1.28 2.167c-11.276 6.099-18.387 6.208-30.555-.003a2.496 2.496 0 01-1.352-2.228z" fill="#1D2C44"/>
  <path d="M540.214 50.619l-7.318 16.304m25.436-5.2L543.108 73.67m24.204.975l-14.32 8.487" stroke="#1D2C44" stroke-width="2"/>
  <defs>
    <filter id="filter0_i" x="144.696" y="56.227" width="397.626" height="286.117" filterUnits="userSpaceOnUse" color-interpolation-filters="sRGB">
      <feFlood flood-opacity="0" result="BackgroundImageFix"/>
      <feBlend in="SourceGraphic" in2="BackgroundImageFix" result="shape"/>
      <feColorMatrix in="SourceAlpha" values="0 0 0 0 0 0 0 0 0 0 0 0 0 0 0 0 0 0 127 0" result="hardAlpha"/>
      <feOffset dx="10" dy="-10"/>
      <feGaussianBlur stdDeviation="5"/>
      <feComposite in2="hardAlpha" operator="arithmetic" k2="-1" k3="1"/>
      <feColorMatrix values="0 0 0 0 0.792157 0 0 0 0 0.823529 0 0 0 0 0.992157 0 0 0 1 0"/>
      <feBlend in2="shape" result="effect1_innerShadow"/>
    </filter>
  </defs>
</svg>